<?xml version="1.0" encoding="utf-8"?>
<!-- Generator: Adobe Illustrator 18.1.0, SVG Export Plug-In . SVG Version: 6.00 Build 0)  -->
<!DOCTYPE svg PUBLIC "-//W3C//DTD SVG 1.1//EN" "http://www.w3.org/Graphics/SVG/1.1/DTD/svg11.dtd">
<svg version="1.1" id="Layer_1" xmlns="http://www.w3.org/2000/svg" xmlns:xlink="http://www.w3.org/1999/xlink" x="0px" y="0px"
	 viewBox="-438 267.1 81.8 27.9" enable-background="new -438 267.1 81.8 27.9" xml:space="preserve">
<g>
	<path fill="#006bc9" d="M-435.8,292.1v-19h2.9v19c0,1.6-1.3,2.9-2.9,2.9h-2.2v-2.9L-435.8,292.1L-435.8,292.1z M-435.9,267.1h3.2v3
		h-3.2V267.1z"/>
	<path fill="#006bc9" d="M-424.7,288.7l-5-15.6h2.9l3.7,11.8l3.5-11.8h2.9l3.4,11.8l3.7-11.8h2.9l-5,15.6h-3l-3.5-11.5l-3.5,11.5
		L-424.7,288.7L-424.7,288.7z"/>
	<path fill="#006bc9" d="M-403.7,267.1h3.2v3h-3.2V267.1z M-400.6,273.1v15.6h-2.9v-15.6H-400.6z"/>
	<path fill="#006bc9" d="M-392.8,267.1v21.6h-2.9v-21.6H-392.8z"/>
	<path fill="#006bc9" d="M-388,276c0-1.6,1.3-2.9,2.9-2.9h8v-6h2.9v21.6h-2.9v-2.6c-0.1,1.5-1.4,2.6-2.9,2.6h-5.2
		c-1.6,0-2.9-1.3-2.9-2.9V276z M-385.1,285.8h8V276h-8V285.8z"/>
	<path fill="#006bc9" d="M-356.2,282.4h-10.3v3.5h10.3v2.9h-10.3c-1.6,0-2.9-1.3-2.9-2.9V276c0-1.6,1.3-2.9,2.9-2.9h7.4
		c1.6,0,2.9,1.3,2.9,2.9V282.4z M-366.5,276v3.5h7.4V276H-366.5z"/>
</g>
</svg>
