<svg width="235" height="33" viewBox="0 0 235 33" fill="none" xmlns="http://www.w3.org/2000/svg">
<path fill-rule="evenodd" clip-rule="evenodd" d="M166.621 5.71201C165.451 5.71201 164.541 4.77601 164.541 3.632C164.541 2.566 165.451 1.604 166.621 1.604C167.739 1.604 168.649 2.566 168.649 3.632C168.649 4.77601 167.739 5.71201 166.621 5.71201ZM164.697 21V7.558H168.493V21H164.697ZM42.7714 21V2.826H46.5674V21H42.7714ZM5.46 10.054C6.344 8.312 8.008 7.246 10.062 7.246V10.444C7.254 10.444 5.46 12.056 5.46 14.578V21H1.664V7.558H5.46V10.054ZM18.5959 17.958C19.6619 17.958 20.9619 17.464 21.6899 16.762L24.1079 19.232C22.9119 20.48 20.5979 21.312 18.6219 21.312C14.6179 21.312 11.4979 18.374 11.4979 14.24C11.4979 10.184 14.4879 7.246 18.4139 7.246C22.6259 7.246 25.0959 10.444 25.0959 15.514H15.3979C15.8399 16.97 17.0099 17.958 18.5959 17.958ZM18.5699 10.6C17.1399 10.6 15.9439 11.432 15.4499 12.784H21.4559C21.0919 11.458 20.1039 10.6 18.5699 10.6ZM39.572 12.966C39.572 9.45601 37.18 7.246 33.67 7.246C31.798 7.246 29.952 7.766 28.054 8.728L29.328 11.25C30.394 10.704 31.564 10.288 32.812 10.288C35.022 10.288 35.906 11.536 35.906 12.966V13.226C34.762 12.784 33.566 12.55 32.474 12.55C29.354 12.55 26.884 14.37 26.884 17.022C26.884 19.596 29.094 21.312 31.954 21.312C33.41 21.312 34.944 20.74 35.906 19.648V21H39.572V12.966ZM35.906 16.762C35.646 18.01 34.268 18.686 32.812 18.686C31.512 18.686 30.55 18.01 30.55 16.918C30.55 15.826 31.642 15.02 33.02 15.02C34.06 15.02 35.048 15.202 35.906 15.514V16.762ZM55.9465 7.558L60.5225 21H63.9285L66.4505 12.55L68.9465 21H72.3525L76.9285 7.558H73.2105L70.6625 15.93L68.0105 7.558H64.8645L62.2125 15.93L59.6645 7.558H55.9465ZM84.9731 21.312C80.9691 21.312 77.6151 18.088 77.6151 14.266C77.6151 10.444 80.9691 7.246 84.9731 7.246C88.9511 7.246 92.2791 10.444 92.2791 14.266C92.2791 18.088 88.9511 21.312 84.9731 21.312ZM84.9731 18.114C86.9751 18.114 88.6651 16.346 88.6651 14.266C88.6651 12.186 86.9751 10.444 84.9731 10.444C82.9451 10.444 81.2551 12.186 81.2551 14.266C81.2551 16.346 82.9451 18.114 84.9731 18.114ZM103.246 7.246C101.192 7.246 99.5276 8.312 98.6436 10.054V7.558H94.8476V21H98.6436V14.578C98.6436 12.056 100.438 10.444 103.246 10.444V7.246ZM105.435 21V2.826H109.231V21H105.435ZM126.377 2.826H122.581V9.482C121.515 8.078 119.955 7.246 118.057 7.246C114.469 7.246 111.869 10.158 111.869 14.266C111.869 18.4 114.469 21.312 118.057 21.312C119.955 21.312 121.515 20.48 122.581 19.076V21H126.377V2.826ZM122.581 14.266C122.581 16.528 121.151 18.114 119.149 18.114C117.043 18.114 115.561 16.528 115.561 14.266C115.561 12.03 117.043 10.444 119.149 10.444C121.151 10.444 122.581 12.03 122.581 14.266ZM145.265 7.246C148.853 7.246 151.453 10.158 151.453 14.266C151.453 18.4 148.853 21.312 145.265 21.312C143.393 21.312 141.833 20.506 140.767 19.102V25.472H136.971V7.558H140.767V9.43C141.833 8.052 143.393 7.246 145.265 7.246ZM144.173 18.114C146.279 18.114 147.761 16.528 147.761 14.266C147.761 12.03 146.279 10.444 144.173 10.444C142.327 10.444 140.975 11.796 140.767 13.746V14.786C140.975 16.762 142.327 18.114 144.173 18.114ZM162.533 7.246C160.479 7.246 158.815 8.312 157.931 10.054V7.558H154.135V21H157.931V14.578C157.931 12.056 159.725 10.444 162.533 10.444V7.246ZM170.481 7.558L176.305 21H179.815L185.561 7.558H181.609L178.073 16.632L174.459 7.558H170.481ZM192.691 7.246C196.201 7.246 198.593 9.45601 198.593 12.966V21H194.927V19.648C193.965 20.74 192.431 21.312 190.975 21.312C188.115 21.312 185.905 19.596 185.905 17.022C185.905 14.37 188.375 12.55 191.495 12.55C192.587 12.55 193.783 12.784 194.927 13.226V12.966C194.927 11.536 194.043 10.288 191.833 10.288C190.585 10.288 189.415 10.704 188.349 11.25L187.075 8.728C188.973 7.766 190.819 7.246 192.691 7.246ZM191.833 18.686C193.289 18.686 194.667 18.01 194.927 16.762V15.514C194.069 15.202 193.081 15.02 192.041 15.02C190.663 15.02 189.571 15.826 189.571 16.918C189.571 18.01 190.533 18.686 191.833 18.686ZM201.039 14.266C201.039 18.088 204.393 21.312 208.371 21.312C210.607 21.312 212.427 20.402 213.753 18.946L211.231 16.814C210.529 17.594 209.437 18.114 208.397 18.114C206.395 18.114 204.731 16.346 204.731 14.24C204.731 12.186 206.395 10.444 208.371 10.444C209.411 10.444 210.477 10.938 211.153 11.692L213.675 9.534C212.375 8.13 210.581 7.246 208.397 7.246C204.419 7.246 201.039 10.444 201.039 14.266ZM219.105 25.68C217.987 25.68 216.635 25.342 215.725 24.848L216.531 22.248C217.181 22.612 217.857 22.846 218.299 22.846C219.027 22.846 219.599 22.612 219.885 22.118L220.353 21.13L214.763 7.558H218.689L222.225 16.996L225.579 7.558H229.453L223.941 21.676C222.927 24.302 221.211 25.68 219.105 25.68ZM228.777 18.894C228.777 20.22 229.843 21.312 231.195 21.312C232.469 21.312 233.509 20.22 233.509 18.894C233.509 17.672 232.469 16.58 231.195 16.58C229.843 16.58 228.777 17.672 228.777 18.894ZM230 31H0V33H230V31Z" fill="url(#paint0_linear_102_5)"/>
<defs>
<linearGradient id="paint0_linear_102_5" x1="7" y1="9" x2="19.0752" y2="73.2814" gradientUnits="userSpaceOnUse">
<stop stop-color="#0E55BF"/>
<stop offset="1" stop-color="#A2177B"/>
</linearGradient>
</defs>
</svg>
